<mxfile host="app.diagrams.net" agent="Mozilla/5.0 (Windows NT 10.0; Win64; x64) AppleWebKit/537.36 (KHTML, like Gecko) Chrome/131.0.0.0 Safari/537.36" version="24.8.6">
  <diagram id="R2lEEEUBdFMjLlhIrx00" name="Page-1">
    <mxGraphModel dx="737" dy="373" grid="1" gridSize="10" guides="1" tooltips="1" connect="1" arrows="1" fold="1" page="1" pageScale="1" pageWidth="850" pageHeight="1100" math="0" shadow="0" extFonts="Permanent Marker^https://fonts.googleapis.com/css?family=Permanent+Marker">
      <root>
        <mxCell id="0" />
        <mxCell id="1" parent="0" />
        <mxCell id="97ClJ8w5a_VK2nnhxEBA-2" value="&lt;u&gt;service_id&lt;/u&gt;" style="ellipse;whiteSpace=wrap;html=1;" vertex="1" parent="1">
          <mxGeometry x="425" y="30" width="80" height="40" as="geometry" />
        </mxCell>
        <mxCell id="97ClJ8w5a_VK2nnhxEBA-5" value="" style="endArrow=none;html=1;rounded=0;entryX=0.584;entryY=0.997;entryDx=0;entryDy=0;entryPerimeter=0;exitX=0.5;exitY=0;exitDx=0;exitDy=0;" edge="1" parent="1" source="97ClJ8w5a_VK2nnhxEBA-10" target="97ClJ8w5a_VK2nnhxEBA-2">
          <mxGeometry width="50" height="50" relative="1" as="geometry">
            <mxPoint x="570" y="100" as="sourcePoint" />
            <mxPoint x="590" y="250" as="targetPoint" />
          </mxGeometry>
        </mxCell>
        <mxCell id="97ClJ8w5a_VK2nnhxEBA-6" value="&lt;u&gt;service_type_id&lt;/u&gt;" style="ellipse;whiteSpace=wrap;html=1;" vertex="1" parent="1">
          <mxGeometry x="530" y="20" width="100" height="40" as="geometry" />
        </mxCell>
        <mxCell id="97ClJ8w5a_VK2nnhxEBA-7" value="" style="endArrow=none;html=1;rounded=0;entryX=0.5;entryY=1;entryDx=0;entryDy=0;exitX=0.5;exitY=0;exitDx=0;exitDy=0;" edge="1" target="97ClJ8w5a_VK2nnhxEBA-6" parent="1" source="97ClJ8w5a_VK2nnhxEBA-10">
          <mxGeometry width="50" height="50" relative="1" as="geometry">
            <mxPoint x="577.5" y="90" as="sourcePoint" />
            <mxPoint x="680" y="240" as="targetPoint" />
          </mxGeometry>
        </mxCell>
        <mxCell id="97ClJ8w5a_VK2nnhxEBA-8" value="&lt;u&gt;transaction_id&lt;/u&gt;" style="ellipse;whiteSpace=wrap;html=1;" vertex="1" parent="1">
          <mxGeometry x="645" y="30" width="100" height="40" as="geometry" />
        </mxCell>
        <mxCell id="97ClJ8w5a_VK2nnhxEBA-9" value="" style="endArrow=none;html=1;rounded=0;entryX=0.5;entryY=1;entryDx=0;entryDy=0;exitX=0.5;exitY=0;exitDx=0;exitDy=0;" edge="1" target="97ClJ8w5a_VK2nnhxEBA-8" parent="1" source="97ClJ8w5a_VK2nnhxEBA-10">
          <mxGeometry width="50" height="50" relative="1" as="geometry">
            <mxPoint x="577.5" y="90" as="sourcePoint" />
            <mxPoint x="790" y="250" as="targetPoint" />
          </mxGeometry>
        </mxCell>
        <mxCell id="97ClJ8w5a_VK2nnhxEBA-10" value="SERVICES" style="rounded=0;whiteSpace=wrap;html=1;" vertex="1" parent="1">
          <mxGeometry x="505" y="90" width="150" height="60" as="geometry" />
        </mxCell>
        <mxCell id="97ClJ8w5a_VK2nnhxEBA-15" value="SERVICE_TYPES" style="rounded=0;whiteSpace=wrap;html=1;" vertex="1" parent="1">
          <mxGeometry x="170" y="90" width="150" height="60" as="geometry" />
        </mxCell>
        <mxCell id="97ClJ8w5a_VK2nnhxEBA-16" value="&lt;u&gt;service_id&lt;/u&gt;" style="ellipse;whiteSpace=wrap;html=1;" vertex="1" parent="1">
          <mxGeometry x="15" y="30" width="80" height="40" as="geometry" />
        </mxCell>
        <mxCell id="97ClJ8w5a_VK2nnhxEBA-17" value="" style="endArrow=none;html=1;rounded=0;entryX=1;entryY=1;entryDx=0;entryDy=0;exitX=0;exitY=0.5;exitDx=0;exitDy=0;" edge="1" parent="1" target="97ClJ8w5a_VK2nnhxEBA-16" source="97ClJ8w5a_VK2nnhxEBA-15">
          <mxGeometry width="50" height="50" relative="1" as="geometry">
            <mxPoint x="170" y="90" as="sourcePoint" />
            <mxPoint x="180" y="250" as="targetPoint" />
          </mxGeometry>
        </mxCell>
        <mxCell id="97ClJ8w5a_VK2nnhxEBA-18" value="type" style="ellipse;whiteSpace=wrap;html=1;" vertex="1" parent="1">
          <mxGeometry x="15" y="90" width="80" height="40" as="geometry" />
        </mxCell>
        <mxCell id="97ClJ8w5a_VK2nnhxEBA-19" value="" style="endArrow=none;html=1;rounded=0;entryX=0.951;entryY=0.706;entryDx=0;entryDy=0;entryPerimeter=0;exitX=0;exitY=0.5;exitDx=0;exitDy=0;" edge="1" parent="1" target="97ClJ8w5a_VK2nnhxEBA-18" source="97ClJ8w5a_VK2nnhxEBA-15">
          <mxGeometry width="50" height="50" relative="1" as="geometry">
            <mxPoint x="170" y="140" as="sourcePoint" />
            <mxPoint x="180" y="300" as="targetPoint" />
          </mxGeometry>
        </mxCell>
        <mxCell id="97ClJ8w5a_VK2nnhxEBA-20" value="description" style="ellipse;whiteSpace=wrap;html=1;" vertex="1" parent="1">
          <mxGeometry x="15" y="140" width="80" height="40" as="geometry" />
        </mxCell>
        <mxCell id="97ClJ8w5a_VK2nnhxEBA-21" value="" style="endArrow=none;html=1;rounded=0;entryX=0.951;entryY=0.706;entryDx=0;entryDy=0;entryPerimeter=0;exitX=0;exitY=0.5;exitDx=0;exitDy=0;" edge="1" parent="1" target="97ClJ8w5a_VK2nnhxEBA-20" source="97ClJ8w5a_VK2nnhxEBA-15">
          <mxGeometry width="50" height="50" relative="1" as="geometry">
            <mxPoint x="170" y="170" as="sourcePoint" />
            <mxPoint x="180" y="350" as="targetPoint" />
          </mxGeometry>
        </mxCell>
        <mxCell id="97ClJ8w5a_VK2nnhxEBA-23" value="cost" style="ellipse;whiteSpace=wrap;html=1;" vertex="1" parent="1">
          <mxGeometry x="15" y="190" width="80" height="40" as="geometry" />
        </mxCell>
        <mxCell id="97ClJ8w5a_VK2nnhxEBA-24" value="" style="endArrow=none;html=1;rounded=0;entryX=0.979;entryY=0.346;entryDx=0;entryDy=0;entryPerimeter=0;exitX=0;exitY=0.5;exitDx=0;exitDy=0;" edge="1" parent="1" target="97ClJ8w5a_VK2nnhxEBA-23" source="97ClJ8w5a_VK2nnhxEBA-15">
          <mxGeometry width="50" height="50" relative="1" as="geometry">
            <mxPoint x="170" y="170" as="sourcePoint" />
            <mxPoint x="180" y="400" as="targetPoint" />
          </mxGeometry>
        </mxCell>
        <mxCell id="97ClJ8w5a_VK2nnhxEBA-29" value="" style="edgeStyle=entityRelationEdgeStyle;fontSize=12;html=1;endArrow=ERzeroToMany;startArrow=ERmandOne;rounded=0;strokeColor=default;align=center;verticalAlign=middle;fontFamily=Helvetica;fontColor=default;labelBackgroundColor=default;exitX=1;exitY=0.5;exitDx=0;exitDy=0;entryX=0;entryY=0.5;entryDx=0;entryDy=0;" edge="1" parent="1" source="97ClJ8w5a_VK2nnhxEBA-15" target="97ClJ8w5a_VK2nnhxEBA-10">
          <mxGeometry width="100" height="100" relative="1" as="geometry">
            <mxPoint x="330" y="170" as="sourcePoint" />
            <mxPoint x="430" y="70" as="targetPoint" />
          </mxGeometry>
        </mxCell>
        <mxCell id="97ClJ8w5a_VK2nnhxEBA-13" value="has" style="rhombus;whiteSpace=wrap;html=1;" vertex="1" parent="1">
          <mxGeometry x="370" y="80" width="80" height="80" as="geometry" />
        </mxCell>
      </root>
    </mxGraphModel>
  </diagram>
</mxfile>
